<svg width="863" height="194" viewBox="0 0 863 194" fill="none" xmlns="http://www.w3.org/2000/svg">
<path d="M59.466 156.884H0V2.11597H58.8623C74.7601 2.11597 88.4947 5.21436 100.066 11.4111C111.687 17.5575 120.643 26.4244 126.931 38.0119C133.27 49.549 136.44 63.3783 136.44 79.5C136.44 95.6217 133.295 109.476 127.007 121.064C120.718 132.601 111.813 141.468 100.292 147.664C88.7714 153.811 75.1626 156.884 59.466 156.884ZM41.9583 121.215H57.9567C65.6038 121.215 72.1189 119.981 77.502 117.512C82.9355 115.043 87.0609 110.786 89.8782 104.74C92.7458 98.6949 94.1797 90.2814 94.1797 79.5C94.1797 68.7186 92.7207 60.3051 89.8027 54.2595C86.9351 48.2139 82.7091 43.9567 77.1247 41.4881C71.5906 39.0195 64.7988 37.7852 56.7493 37.7852H41.9583V121.215Z" fill="white"/>
<path d="M155.853 156.884V2.11597H222.564C234.034 2.11597 244.071 4.20676 252.674 8.38831C261.277 12.5699 267.968 18.5903 272.747 26.4496C277.527 34.3089 279.917 43.73 279.917 54.7129C279.917 65.7966 277.451 75.1421 272.521 82.7495C267.641 90.3569 260.774 96.1003 251.919 99.9796C243.115 103.859 232.827 105.798 221.054 105.798H181.209V73.1521H212.602C217.533 73.1521 221.733 72.5475 225.205 71.3384C228.727 70.0789 231.418 68.0889 233.28 65.3683C235.191 62.6478 236.147 59.096 236.147 54.7129C236.147 50.2795 235.191 46.6773 233.28 43.9064C231.418 41.0851 228.727 39.0195 225.205 37.7096C221.733 36.3493 217.533 35.6692 212.602 35.6692H197.811V156.884H155.853ZM246.41 85.8479L285.048 156.884H239.468L201.735 85.8479H246.41Z" fill="white"/>
<path d="M447.523 79.5C447.523 96.73 444.178 111.265 437.486 123.104C430.795 134.893 421.765 143.836 410.395 149.932C399.025 155.977 386.347 159 372.361 159C358.274 159 345.546 155.952 334.176 149.856C322.856 143.71 313.85 134.742 307.159 122.953C300.518 111.114 297.198 96.6293 297.198 79.5C297.198 62.27 300.518 47.7605 307.159 35.9715C313.85 24.1321 322.856 15.1896 334.176 9.14401C345.546 3.048 358.274 0 372.361 0C386.347 0 399.025 3.048 410.395 9.14401C421.765 15.1896 430.795 24.1321 437.486 35.9715C444.178 47.7605 447.523 62.27 447.523 79.5ZM404.358 79.5C404.358 70.23 403.125 62.4211 400.66 56.0732C398.245 49.6749 394.648 44.8384 389.868 41.5637C385.139 38.2386 379.303 36.576 372.361 36.576C365.418 36.576 359.557 38.2386 354.777 41.5637C350.048 44.8384 346.451 49.6749 343.986 56.0732C341.571 62.4211 340.364 70.23 340.364 79.5C340.364 88.77 341.571 96.6041 343.986 103.002C346.451 109.35 350.048 114.187 354.777 117.512C359.557 120.787 365.418 122.424 372.361 122.424C379.303 122.424 385.139 120.787 389.868 117.512C394.648 114.187 398.245 109.35 400.66 103.002C403.125 96.6041 404.358 88.77 404.358 79.5Z" fill="white"/>
<path d="M466.936 156.884V2.11597H533.647C545.118 2.11597 555.154 4.38308 563.757 8.91731C572.36 13.4515 579.051 19.8246 583.831 28.0366C588.61 36.2486 591 45.846 591 56.8289C591 67.9126 588.535 77.51 583.604 85.6212C578.724 93.7324 571.857 99.9796 563.003 104.363C554.199 108.746 543.91 110.937 532.138 110.937H492.292V78.2909H523.686C528.616 78.2909 532.817 77.4344 536.288 75.7215C539.81 73.9582 542.501 71.4644 544.363 68.24C546.275 65.0157 547.231 61.212 547.231 56.8289C547.231 52.3954 546.275 48.6169 544.363 45.4934C542.501 42.3194 539.81 39.9011 536.288 38.2386C532.817 36.5257 528.616 35.6692 523.686 35.6692H508.895V156.884H466.936Z" fill="white"/>
<path d="M424.981 182.624C424.404 187.792 421.323 190.376 415.739 190.376C412.851 190.376 410.54 189.514 408.807 187.792C407.171 186.069 406.352 183.581 406.352 180.328C406.352 174.777 406.593 168.844 407.074 162.528C407.652 156.117 408.326 149.657 409.096 143.15C409.963 136.643 410.781 130.422 411.551 124.489C408.085 129.465 404.427 134.585 400.576 139.848C396.725 145.112 392.874 150.231 389.023 155.207C385.172 160.184 381.465 164.681 377.903 168.701C374.437 172.624 371.26 175.782 368.372 178.174C365.484 180.471 363.077 181.619 361.151 181.619C356.53 181.619 352.535 179.945 349.165 176.595C345.796 173.15 344.111 168.796 344.111 163.533C344.111 161.715 344.303 159.275 344.688 156.212C345.074 153.054 345.555 149.705 346.133 146.164C346.71 142.624 347.192 139.274 347.577 136.116C347.962 132.958 348.154 130.47 348.154 128.652C348.154 128.652 348.154 128.556 348.154 128.365C348.251 127.886 348.154 127.647 347.866 127.647C347.48 127.647 346.421 128.939 344.688 131.523C342.956 134.011 340.838 137.265 338.334 141.284C335.831 145.303 333.184 149.514 330.392 153.916C327.696 158.318 325.145 162.432 322.738 166.26C320.427 170.088 318.502 173.055 316.961 175.16C314.843 178.414 312.87 180.471 311.041 181.332C309.211 182.194 307.093 182.624 304.686 182.624C301.317 182.624 298.669 181.524 296.744 179.323C294.915 177.026 294 173.82 294 169.705C294 167.983 294.289 165.303 294.866 161.667C295.54 158.03 296.359 154.011 297.321 149.609C298.284 145.112 299.247 140.757 300.21 136.547C301.269 132.241 302.183 128.604 302.954 125.638C303.82 121.714 305.023 118.987 306.564 117.456C308.2 115.829 310.27 115.015 312.774 115.015C318.646 115.015 321.583 117.886 321.583 123.628C321.583 124.681 321.246 126.403 320.572 128.796C319.898 131.188 319.079 133.963 318.117 137.121C317.154 140.279 316.143 143.533 315.084 146.882C314.025 150.136 313.159 153.198 312.485 156.069C314.795 152.05 317.298 147.743 319.994 143.15C322.69 138.556 325.434 134.059 328.226 129.657C331.114 125.255 333.954 121.236 336.746 117.599C339.634 113.963 342.474 111.092 345.266 108.987C348.058 106.786 350.706 105.685 353.209 105.685C355.712 105.685 358.167 106.594 360.574 108.412C362.981 110.135 364.954 112.384 366.495 115.159C368.131 117.838 368.95 120.709 368.95 123.772C368.95 126.642 368.565 130.087 367.794 134.107C367.024 138.126 366.158 142.336 365.195 146.738C364.232 151.14 363.558 155.447 363.173 159.657C366.447 156.021 369.912 151.906 373.571 147.313C377.229 142.624 380.984 137.791 384.835 132.815C388.686 127.839 392.441 123.006 396.099 118.317C399.854 113.628 403.32 109.369 406.497 105.542C409.77 101.714 412.658 98.6993 415.161 96.4984C417.665 94.2017 419.59 93.0533 420.938 93.0533C424.885 93.0533 427.966 94.106 430.18 96.2113C432.491 98.2209 433.646 101.762 433.646 106.833C433.646 109.991 433.405 114.106 432.924 119.178C432.539 124.25 431.961 129.753 431.191 135.686C430.517 141.523 429.747 147.456 428.881 153.485C428.11 159.418 427.388 164.921 426.714 169.992C426.04 175.064 425.463 179.275 424.981 182.624Z" fill="#1ED760"/>
<path d="M464.091 191.38C461.01 191.38 458.218 190.519 455.715 188.797C453.212 187.17 451.238 185.017 449.794 182.337C448.35 179.562 447.628 176.595 447.628 173.437C447.628 167.504 448.928 161.715 451.527 156.069C454.223 150.423 457.737 145.064 462.069 139.992C466.402 134.92 471.119 130.279 476.222 126.068C481.42 121.762 486.571 118.078 491.674 115.015C496.872 111.953 501.59 109.561 505.826 107.838C510.158 106.116 513.528 105.254 515.935 105.254C518.727 105.254 520.989 105.877 522.722 107.121C524.551 108.269 525.466 110.087 525.466 112.575C525.466 113.341 525.273 113.963 524.888 114.441C526.14 114.728 527.151 115.446 527.921 116.594C528.691 117.743 529.076 119.465 529.076 121.762C529.076 122.719 528.836 125.207 528.354 129.226C527.873 133.245 527.343 138.126 526.766 143.868C526.284 149.609 526.044 155.59 526.044 161.81C526.044 162.767 526.188 163.629 526.477 164.394C526.766 165.064 527.391 165.399 528.354 165.399C532.205 165.399 536.104 164.633 540.052 163.102C544.095 161.476 547.994 159.514 551.749 157.217C555.6 154.825 559.066 152.48 562.147 150.183C565.324 147.791 567.971 145.829 570.089 144.298C572.303 142.671 573.748 141.858 574.422 141.858C577.695 141.858 579.332 143.485 579.332 146.738C579.332 147.6 578.273 149.418 576.154 152.193C574.133 154.873 571.341 157.983 567.779 161.523C564.216 164.968 560.221 168.413 555.792 171.858C551.46 175.208 546.935 177.983 542.218 180.184C537.597 182.385 533.12 183.485 528.787 183.485C523.492 183.485 519.449 182.241 516.657 179.753C513.961 177.265 512.036 173.916 510.88 169.705C509.821 165.399 509.244 160.566 509.147 155.207C504.237 162.193 499.135 168.413 493.84 173.868C488.641 179.227 483.49 183.485 478.388 186.643C473.285 189.801 468.52 191.38 464.091 191.38ZM515.213 119.465C505.778 123.963 497.306 129.13 489.796 134.968C482.287 140.71 476.318 146.738 471.889 153.054C467.557 159.37 465.391 165.447 465.391 171.284C465.391 172.911 466.161 173.725 467.701 173.725C469.531 173.725 471.937 172.672 474.922 170.567C478.003 168.461 481.324 165.686 484.886 162.241C488.448 158.7 492.011 154.777 495.573 150.471C499.135 146.069 502.456 141.571 505.537 136.977C508.618 132.384 511.073 127.982 512.902 123.772C513.576 122.24 514.346 120.805 515.213 119.465Z" fill="#1ED760"/>
<path d="M572.963 188.079C570.267 188.079 567.86 187.17 565.742 185.352C563.72 183.533 562.709 180.567 562.709 176.452C562.709 174.251 562.998 171.141 563.576 167.122C564.25 163.102 565.116 158.748 566.175 154.059C567.234 149.274 568.39 144.537 569.641 139.848C570.989 135.159 572.289 130.997 573.54 127.36C574.792 123.628 575.899 120.853 576.862 119.035C578.113 116.834 579.269 115.494 580.328 115.015C581.483 114.441 582.59 114.154 583.649 114.154C585.575 114.154 587.356 114.728 588.992 115.877C590.725 117.025 591.592 119.561 591.592 123.484C591.592 125.016 591.303 127.504 590.725 130.949C590.148 134.298 589.426 138.222 588.559 142.719C587.693 147.217 586.73 151.858 585.671 156.643C584.708 161.428 583.745 165.973 582.783 170.279C581.916 174.49 581.194 178.031 580.617 180.902C580.135 183.294 579.124 185.064 577.584 186.213C576.14 187.457 574.599 188.079 572.963 188.079ZM589.57 99.9434C586.393 99.9434 583.457 99.0343 580.761 97.2161C578.065 95.3022 576.717 92.3835 576.717 88.4599C576.717 85.2063 577.536 82.5747 579.172 80.5651C580.809 78.5555 582.735 77.12 584.949 76.2588C587.259 75.3018 589.281 74.8233 591.014 74.8233C592.747 74.8233 594.673 75.2061 596.791 75.9717C598.909 76.6416 600.738 77.9334 602.278 79.8474C603.915 81.6656 604.733 84.2972 604.733 87.7422C604.733 90.0389 603.915 92.1442 602.278 94.0581C600.642 95.8763 598.62 97.3118 596.213 98.3644C593.902 99.4171 591.688 99.9434 589.57 99.9434Z" fill="#1ED760"/>
<path d="M641.248 193.103C632.583 193.103 625.748 190.471 620.742 185.208C615.832 179.849 613.377 172.241 613.377 162.385C613.377 157.026 614.099 150.758 615.543 143.58C616.987 136.308 618.864 128.652 621.175 120.614C623.582 112.479 626.133 104.441 628.829 96.4984C631.621 88.5556 634.364 81.1871 637.06 74.3927C639.756 67.5983 642.114 61.9045 644.136 57.3111C645.869 53.7704 648.324 52 651.501 52C653.523 52 655.16 52.622 656.411 53.8661C657.759 55.1101 658.433 57.1197 658.433 59.8949C658.433 61.2346 657.759 64.1533 656.411 68.651C655.063 73.1487 653.282 78.699 651.068 85.302C648.95 91.8093 646.639 98.8429 644.136 106.403C641.729 113.963 639.419 121.571 637.204 129.226C635.086 136.882 633.354 144.107 632.006 150.901C630.658 157.6 629.984 163.294 629.984 167.983C629.984 169.897 630.513 171.428 631.572 172.576C632.728 173.725 634.22 174.299 636.049 174.299C639.996 174.299 644.04 173.581 648.18 172.146C652.416 170.71 656.556 168.892 660.599 166.691C664.739 164.49 668.638 162.145 672.297 159.657C675.955 157.169 679.228 154.825 682.117 152.624C685.101 150.327 687.508 148.509 689.337 147.169C691.744 145.351 693.381 144.442 694.247 144.442C697.52 144.442 699.157 146.021 699.157 149.179C699.157 149.944 698.194 151.523 696.269 153.916C694.632 156.021 692.322 158.7 689.337 161.954C686.353 165.208 682.887 168.653 678.939 172.289C675.088 175.83 670.949 179.179 666.52 182.337C662.188 185.495 657.855 188.079 653.523 190.088C649.191 192.098 645.099 193.103 641.248 193.103Z" fill="#1ED760"/>
<path d="M751.917 123.772C751.917 129.992 748.355 136.164 741.231 142.289C734.202 148.317 723.275 153.676 708.449 158.365C708.449 158.461 708.449 158.605 708.449 158.796C708.449 161.954 708.834 164.49 709.604 166.404C710.375 168.222 712.059 169.131 714.659 169.131C718.51 169.131 722.794 167.983 727.511 165.686C732.325 163.294 737.283 160.279 742.386 156.643C747.585 152.911 752.639 148.987 757.549 144.872C762.459 140.757 766.984 136.882 771.124 133.245C775.36 129.513 778.922 126.499 781.81 124.202C784.795 121.81 786.768 120.614 787.731 120.614C789.753 120.614 791.438 121.379 792.785 122.91C794.23 124.441 794.952 126.738 794.952 129.8C794.952 131.523 794.855 133.58 794.663 135.973C798.899 128.7 803.809 122.719 809.393 118.03C814.977 113.245 820.464 109.704 825.856 107.408C831.343 105.015 836.013 103.819 839.864 103.819C844.196 103.819 847.132 104.68 848.673 106.403C850.213 108.03 850.983 109.752 850.983 111.57C850.983 112.623 850.743 113.676 850.261 114.728C849.876 115.685 848.817 116.738 847.084 117.886C845.448 119.035 842.704 120.374 838.853 121.905C833.75 123.819 828.888 126.068 824.267 128.652C819.742 131.236 815.554 134.777 811.703 139.274C807.949 143.676 804.531 149.609 801.45 157.074C798.466 164.442 795.963 173.916 793.941 185.495C793.267 188.749 792.208 190.95 790.764 192.098C789.32 193.342 787.635 193.964 785.709 193.964C785.517 193.964 785.18 193.964 784.698 193.964C783.832 194.06 782.917 193.964 781.955 193.677C781.088 193.486 780.222 192.672 779.355 191.237C778.585 189.897 777.959 187.553 777.478 184.203C776.996 180.854 776.756 176.069 776.756 169.849C776.756 166.117 776.9 162.193 777.189 158.078C777.574 153.868 778.055 149.514 778.633 145.016C773.723 149.801 768.476 154.633 762.892 159.514C757.308 164.394 751.532 168.892 745.563 173.007C739.69 177.026 733.914 180.28 728.233 182.768C722.65 185.256 717.451 186.5 712.637 186.5C706.187 186.5 700.892 184.442 696.752 180.328C692.708 176.117 690.686 169.657 690.686 160.949C690.686 152.337 691.842 144.537 694.152 137.552C696.559 130.47 699.64 124.394 703.395 119.322C707.149 114.25 711.145 110.374 715.381 107.695C719.713 104.92 723.757 103.532 727.511 103.532C735.502 103.532 741.568 105.446 745.707 109.274C749.847 113.006 751.917 117.838 751.917 123.772ZM710.326 145.59C712.83 144.346 715.477 142.911 718.269 141.284C721.157 139.561 723.853 137.791 726.356 135.973C728.859 134.059 730.881 132.193 732.421 130.375C734.058 128.556 734.876 126.834 734.876 125.207C734.876 122.527 734.106 120.901 732.566 120.327C731.122 119.657 729.148 119.322 726.645 119.322C724.046 119.322 721.687 120.709 719.569 123.484C717.451 126.164 715.622 129.513 714.081 133.532C712.541 137.552 711.289 141.571 710.326 145.59Z" fill="#1ED760"/>
<path d="M848.27 189.658C845.286 189.658 842.494 188.749 839.894 186.93C837.295 185.112 835.995 182.146 835.995 178.031C835.995 174.873 836.813 172.337 838.45 170.423C840.087 168.413 841.964 166.93 844.082 165.973C846.296 165.016 848.174 164.538 849.714 164.538C851.351 164.538 853.18 164.921 855.202 165.686C857.32 166.356 859.149 167.648 860.689 169.562C862.23 171.38 863 174.012 863 177.457C863 180.806 861.556 183.677 858.668 186.069C855.876 188.462 852.41 189.658 848.27 189.658Z" fill="#1ED760"/>
</svg>
